<?xml version="1.0" ?><!DOCTYPE svg  PUBLIC '-//W3C//DTD SVG 1.1//EN'  'http://www.w3.org/Graphics/SVG/1.1/DTD/svg11.dtd'>
<svg enable-background="new 0 0 512 512" height="512px" id="Layer_1" version="1.1" viewBox="0 0 512 512" width="512px" xml:space="preserve"
  xmlns="http://www.w3.org/2000/svg"
  xmlns:xlink="http://www.w3.org/1999/xlink">
  <g>
    <path d="M309.611,367.63c-91.043,0-164.835-73.801-164.835-164.863c0-62.778,35.49-116.695,87.115-144.532   C133.998,70.628,58.232,154.041,58.232,255.311c0,109.803,89.024,198.863,198.85,198.863c101.26,0,184.669-75.793,197.08-173.678   C426.316,332.149,372.376,367.63,309.611,367.63z" fill="#FFF"/>
    <polygon fill="#FFF" points="329.925,302.533 364.806,284.185 399.688,302.533 393.021,263.691 421.227,236.196 382.242,230.53    364.806,195.197 347.36,230.53 308.386,236.196 336.591,263.691  "/>
  </g>
</svg>